<?xml version="1.0" encoding="utf-8"?>
<!-- Generator: Adobe Illustrator 23.0.4, SVG Export Plug-In . SVG Version: 6.00 Build 0)  -->
<svg version="1.1" id="Layer_1" xmlns="http://www.w3.org/2000/svg" xmlns:xlink="http://www.w3.org/1999/xlink" x="0px" y="0px"
	 viewBox="0 0 40 40" style="enable-background:new 0 0 40 40;" xml:space="preserve">
<style type="text/css">
	.st0{fill:#3B6465;}
	.st1{fill:#FFFFFF;}
</style>
<path class="st0" d="M24.3,35.7h-8.6c-6.6,0-12-5.4-12-12v-7.4c0-6.6,5.4-12,12-12h8.6c6.6,0,12,5.4,12,12v7.4
	C36.3,30.3,30.9,35.7,24.3,35.7z"/>
<g>
	<g>
		<path class="st1" d="M12.7,15.8c0.1,0.2,0.3,0.4,0.5,0.6c0.2,0.3,0.4,0.5,0.6,0.9s0.4,0.6,0.6,1c0.2,0.3,0.4,0.7,0.5,1h-1.3
			c-0.2-0.3-0.3-0.6-0.5-0.9s-0.4-0.6-0.6-0.9c-0.2-0.3-0.4-0.6-0.6-0.8c-0.2-0.2-0.4-0.5-0.5-0.6c-0.1,0-0.2,0-0.3,0
			c-0.1,0-0.2,0-0.3,0h-1v3.3H8.6v-8.2C8.9,11,9.3,11,9.7,11s0.8,0,1.1,0c1.2,0,2.1,0.2,2.7,0.7c0.6,0.4,0.9,1.1,0.9,2
			c0,0.6-0.1,1-0.4,1.4C13.7,15.3,13.3,15.6,12.7,15.8z M10.9,11.9c-0.5,0-0.9,0-1.1,0v3.1h0.8c0.4,0,0.8,0,1.1-0.1s0.6-0.1,0.8-0.2
			c0.2-0.1,0.4-0.3,0.5-0.5c0.1-0.2,0.2-0.5,0.2-0.8c0-0.3-0.1-0.6-0.2-0.8c-0.1-0.2-0.3-0.4-0.5-0.5c-0.2-0.1-0.4-0.2-0.7-0.3
			C11.5,12,11.2,11.9,10.9,11.9z"/>
		<path class="st1" d="M17.6,18.7c0,0.2-0.1,0.4-0.2,0.6s-0.3,0.2-0.6,0.2c-0.2,0-0.4-0.1-0.6-0.2S16,18.9,16,18.7s0.1-0.4,0.2-0.6
			s0.3-0.2,0.6-0.2c0.2,0,0.4,0.1,0.6,0.2S17.6,18.4,17.6,18.7z"/>
		<path class="st1" d="M21.9,19.5c-0.5,0-0.9-0.1-1.3-0.2c-0.4-0.2-0.7-0.4-1-0.7c-0.3-0.3-0.5-0.6-0.6-1c-0.1-0.4-0.2-0.8-0.2-1.3
			s0.1-0.9,0.2-1.3c0.1-0.4,0.3-0.7,0.6-1c0.3-0.3,0.6-0.5,0.9-0.7s0.8-0.2,1.2-0.2c0.3,0,0.6,0,0.8,0.1c0.3,0,0.5,0.1,0.8,0.2
			l-0.3,0.9c-0.2-0.1-0.4-0.1-0.6-0.2c-0.2,0-0.5-0.1-0.7-0.1c-0.6,0-1.1,0.2-1.4,0.6c-0.3,0.4-0.5,1-0.5,1.7c0,0.3,0,0.6,0.1,0.9
			c0.1,0.3,0.2,0.5,0.4,0.7c0.2,0.2,0.4,0.4,0.6,0.5s0.6,0.2,0.9,0.2c0.3,0,0.6,0,0.8-0.1c0.2-0.1,0.4-0.1,0.6-0.2l0.2,0.9
			c-0.1,0-0.2,0.1-0.3,0.1c-0.1,0-0.3,0.1-0.4,0.1c-0.2,0-0.3,0.1-0.5,0.1S22.1,19.5,21.9,19.5z"/>
		<path class="st1" d="M26.2,18.5c0.5,0,0.8-0.1,1-0.2c0.2-0.1,0.3-0.3,0.3-0.6c0-0.3-0.1-0.5-0.3-0.6c-0.2-0.2-0.6-0.3-1.1-0.5
			c-0.2-0.1-0.5-0.2-0.7-0.3c-0.2-0.1-0.4-0.2-0.6-0.4c-0.2-0.1-0.3-0.3-0.4-0.5c-0.1-0.2-0.1-0.4-0.1-0.7c0-0.6,0.2-1,0.6-1.3
			c0.4-0.3,1-0.5,1.7-0.5c0.2,0,0.4,0,0.5,0c0.2,0,0.3,0,0.5,0.1s0.3,0.1,0.4,0.1c0.1,0,0.2,0.1,0.3,0.1l-0.2,1
			c-0.1-0.1-0.3-0.1-0.6-0.2c-0.3-0.1-0.6-0.1-0.9-0.1c-0.3,0-0.6,0.1-0.8,0.2s-0.3,0.3-0.3,0.6c0,0.1,0,0.3,0.1,0.4
			c0.1,0.1,0.1,0.2,0.2,0.3c0.1,0.1,0.2,0.2,0.4,0.2c0.2,0.1,0.4,0.1,0.6,0.2c0.3,0.1,0.6,0.2,0.8,0.3c0.2,0.1,0.4,0.2,0.6,0.4
			s0.3,0.3,0.4,0.5s0.1,0.5,0.1,0.8c0,0.6-0.2,1-0.6,1.3s-1,0.4-1.8,0.4c-0.6,0-1,0-1.3-0.1s-0.5-0.2-0.6-0.2l0.2-1
			c0.1,0,0.3,0.1,0.6,0.2C25.4,18.5,25.8,18.5,26.2,18.5z"/>
	</g>
	<g>
		<path class="st1" d="M8.6,22.1h1.2v8.3H8.6V22.1z"/>
		<path class="st1" d="M15.9,26.9c0.1,0.2,0.3,0.4,0.5,0.6c0.2,0.3,0.4,0.5,0.6,0.9c0.2,0.3,0.4,0.6,0.6,1s0.4,0.7,0.5,1h-1.3
			c-0.2-0.3-0.3-0.6-0.5-0.9s-0.4-0.6-0.6-0.9c-0.2-0.3-0.4-0.5-0.6-0.8c-0.2-0.2-0.4-0.5-0.5-0.6c-0.1,0-0.2,0-0.3,0
			c-0.1,0-0.2,0-0.3,0h-1v3.3h-1.2v-8.2c0.3-0.1,0.7-0.1,1.1-0.2c0.4,0,0.8,0,1.1,0c1.2,0,2.1,0.2,2.7,0.7c0.6,0.4,0.9,1.1,0.9,2
			c0,0.6-0.1,1-0.4,1.4C16.9,26.4,16.5,26.7,15.9,26.9z M14.2,23c-0.5,0-0.9,0-1.1,0v3.1h0.8c0.4,0,0.8,0,1.1-0.1
			c0.3,0,0.6-0.1,0.8-0.2c0.2-0.1,0.4-0.3,0.5-0.5c0.1-0.2,0.2-0.5,0.2-0.8c0-0.3-0.1-0.6-0.2-0.8c-0.1-0.2-0.3-0.4-0.5-0.5
			c-0.2-0.1-0.4-0.2-0.7-0.3C14.8,23,14.5,23,14.2,23z"/>
		<path class="st1" d="M20.8,29.7c0,0.2-0.1,0.4-0.2,0.6s-0.3,0.2-0.6,0.2c-0.2,0-0.4-0.1-0.6-0.2s-0.2-0.3-0.2-0.6
			c0-0.2,0.1-0.4,0.2-0.6s0.3-0.2,0.6-0.2c0.2,0,0.4,0.1,0.6,0.2S20.8,29.5,20.8,29.7z"/>
		<path class="st1" d="M25.2,30.5c-0.5,0-0.9-0.1-1.3-0.2c-0.4-0.2-0.7-0.4-1-0.7c-0.3-0.3-0.5-0.6-0.6-1s-0.2-0.8-0.2-1.3
			c0-0.5,0.1-0.9,0.2-1.3s0.3-0.7,0.6-1c0.3-0.3,0.6-0.5,0.9-0.7s0.8-0.2,1.2-0.2c0.3,0,0.6,0,0.8,0.1c0.3,0,0.5,0.1,0.8,0.2
			l-0.3,0.9c-0.2-0.1-0.4-0.1-0.6-0.2c-0.2,0-0.5-0.1-0.7-0.1c-0.6,0-1.1,0.2-1.4,0.6c-0.3,0.4-0.5,1-0.5,1.7c0,0.3,0,0.6,0.1,0.9
			c0.1,0.3,0.2,0.5,0.4,0.7s0.4,0.4,0.6,0.5s0.6,0.2,0.9,0.2c0.3,0,0.6,0,0.8-0.1c0.2-0.1,0.4-0.1,0.6-0.2l0.2,0.9
			c-0.1,0-0.2,0.1-0.3,0.1c-0.1,0-0.3,0.1-0.4,0.1c-0.2,0-0.3,0.1-0.5,0.1C25.5,30.5,25.3,30.5,25.2,30.5z"/>
		<path class="st1" d="M29.5,29.6c0.5,0,0.8-0.1,1-0.2c0.2-0.1,0.3-0.3,0.3-0.6c0-0.3-0.1-0.5-0.3-0.6c-0.2-0.2-0.6-0.3-1.1-0.5
			c-0.2-0.1-0.5-0.2-0.7-0.3c-0.2-0.1-0.4-0.2-0.6-0.4c-0.2-0.1-0.3-0.3-0.4-0.5c-0.1-0.2-0.1-0.4-0.1-0.7c0-0.6,0.2-1,0.6-1.3
			s1-0.5,1.7-0.5c0.2,0,0.4,0,0.5,0c0.2,0,0.3,0,0.5,0.1c0.2,0,0.3,0.1,0.4,0.1c0.1,0,0.2,0.1,0.3,0.1l-0.2,1
			c-0.1-0.1-0.3-0.1-0.6-0.2c-0.3-0.1-0.6-0.1-0.9-0.1c-0.3,0-0.6,0.1-0.8,0.2c-0.2,0.1-0.3,0.3-0.3,0.6c0,0.1,0,0.3,0.1,0.4
			c0.1,0.1,0.1,0.2,0.2,0.3c0.1,0.1,0.2,0.2,0.4,0.2c0.2,0.1,0.4,0.1,0.6,0.2c0.3,0.1,0.6,0.2,0.8,0.3c0.2,0.1,0.4,0.2,0.6,0.4
			s0.3,0.3,0.4,0.5c0.1,0.2,0.1,0.5,0.1,0.8c0,0.6-0.2,1-0.6,1.3c-0.4,0.3-1,0.4-1.8,0.4c-0.6,0-1,0-1.3-0.1
			c-0.3-0.1-0.5-0.2-0.6-0.2l0.2-1c0.1,0,0.3,0.1,0.6,0.2C28.6,29.5,29,29.6,29.5,29.6z"/>
	</g>
</g>
</svg>
